<svg id="visual" viewBox="0 0 900 600" width="900" height="600" xmlns="http://www.w3.org/2000/svg" xmlns:xlink="http://www.w3.org/1999/xlink" version="1.1"><rect x="0" y="0" width="900" height="600" fill="#001220"></rect><g fill="#18cf00"><circle r="69" cx="851" cy="233"></circle><circle r="13" cx="445" cy="53"></circle><circle r="48" cx="90" cy="308"></circle><circle r="57" cx="353" cy="316"></circle><circle r="65" cx="850" cy="545"></circle><circle r="45" cx="755" cy="406"></circle><circle r="33" cx="677" cy="41"></circle><circle r="19" cx="313" cy="157"></circle><circle r="19" cx="602" cy="355"></circle><circle r="22" cx="188" cy="410"></circle><circle r="43" cx="572" cy="142"></circle><circle r="45" cx="389" cy="483"></circle><circle r="17" cx="703" cy="258"></circle><circle r="34" cx="95" cy="565"></circle><circle r="60" cx="139" cy="160"></circle><circle r="50" cx="650" cy="515"></circle><circle r="63" cx="36" cy="3"></circle><circle r="63" cx="245" cy="5"></circle><circle r="46" cx="809" cy="84"></circle><circle r="48" cx="514" cy="566"></circle><circle r="49" cx="1" cy="154"></circle></g></svg>