<svg id="visual" viewBox="0 0 900 600" width="900" height="600" xmlns="http://www.w3.org/2000/svg" xmlns:xlink="http://www.w3.org/1999/xlink" version="1.1"><rect width="900" height="600" fill="#061017"></rect><g><g transform="translate(108 117)"><path d="M0 -103.3L89.5 -51.7L89.5 51.7L0 103.3L-89.5 51.7L-89.5 -51.7Z" fill="#18cf00"></path></g><g transform="translate(81 595)"><path d="M0 -68L58.9 -34L58.9 34L0 68L-58.9 34L-58.9 -34Z" fill="#18cf00"></path></g><g transform="translate(557 497)"><path d="M0 -73L63.2 -36.5L63.2 36.5L0 73L-63.2 36.5L-63.2 -36.5Z" fill="#18cf00"></path></g><g transform="translate(229 431)"><path d="M0 -98L84.9 -49L84.9 49L0 98L-84.9 49L-84.9 -49Z" fill="#18cf00"></path></g><g transform="translate(760 330)"><path d="M0 -52L45 -26L45 26L0 52L-45 26L-45 -26Z" fill="#18cf00"></path></g><g transform="translate(875 153)"><path d="M0 -102L88.3 -51L88.3 51L0 102L-88.3 51L-88.3 -51Z" fill="#18cf00"></path></g><g transform="translate(690 39)"><path d="M0 -53L45.9 -26.5L45.9 26.5L0 53L-45.9 26.5L-45.9 -26.5Z" fill="#18cf00"></path></g><g transform="translate(322 151)"><path d="M0 -61L52.8 -30.5L52.8 30.5L0 61L-52.8 30.5L-52.8 -30.5Z" fill="#18cf00"></path></g><g transform="translate(475 301)"><path d="M0 -58L50.2 -29L50.2 29L0 58L-50.2 29L-50.2 -29Z" fill="#18cf00"></path></g><g transform="translate(361 595)"><path d="M0 -84L72.7 -42L72.7 42L0 84L-72.7 42L-72.7 -42Z" fill="#18cf00"></path></g><g transform="translate(775 553)"><path d="M0 -88L76.2 -44L76.2 44L0 88L-76.2 44L-76.2 -44Z" fill="#18cf00"></path></g><g transform="translate(5 340)"><path d="M0 -64L55.4 -32L55.4 32L0 64L-55.4 32L-55.4 -32Z" fill="#18cf00"></path></g><g transform="translate(471 1)"><path d="M0 -95L82.3 -47.5L82.3 47.5L0 95L-82.3 47.5L-82.3 -47.5Z" fill="#18cf00"></path></g></g></svg>