<svg id="visual" viewBox="0 0 900 600" width="900" height="600" xmlns="http://www.w3.org/2000/svg" xmlns:xlink="http://www.w3.org/1999/xlink" version="1.1"><path d="M0 97L21.5 91C43 85 86 73 128.8 72C171.7 71 214.3 81 257.2 87C300 93 343 95 385.8 95C428.7 95 471.3 93 514.2 92C557 91 600 91 642.8 88C685.7 85 728.3 79 771.2 80C814 81 857 89 878.5 93L900 97L900 0L878.5 0C857 0 814 0 771.2 0C728.3 0 685.7 0 642.8 0C600 0 557 0 514.2 0C471.3 0 428.7 0 385.8 0C343 0 300 0 257.2 0C214.3 0 171.7 0 128.8 0C86 0 43 0 21.5 0L0 0Z" fill="#3f3b3b"></path><path d="M0 145L21.5 139C43 133 86 121 128.8 122C171.7 123 214.3 137 257.2 137C300 137 343 123 385.8 115C428.7 107 471.3 105 514.2 110C557 115 600 127 642.8 128C685.7 129 728.3 119 771.2 120C814 121 857 133 878.5 139L900 145L900 95L878.5 91C857 87 814 79 771.2 78C728.3 77 685.7 83 642.8 86C600 89 557 89 514.2 90C471.3 91 428.7 93 385.8 93C343 93 300 91 257.2 85C214.3 79 171.7 69 128.8 70C86 71 43 83 21.5 89L0 95Z" fill="#373333"></path><path d="M0 307L21.5 297C43 287 86 267 128.8 263C171.7 259 214.3 271 257.2 271C300 271 343 259 385.8 243C428.7 227 471.3 207 514.2 210C557 213 600 239 642.8 244C685.7 249 728.3 233 771.2 228C814 223 857 229 878.5 232L900 235L900 143L878.5 137C857 131 814 119 771.2 118C728.3 117 685.7 127 642.8 126C600 125 557 113 514.2 108C471.3 103 428.7 105 385.8 113C343 121 300 135 257.2 135C214.3 135 171.7 121 128.8 120C86 119 43 131 21.5 137L0 143Z" fill="#2e2b2b"></path><path d="M0 337L21.5 327C43 317 86 297 128.8 292C171.7 287 214.3 297 257.2 298C300 299 343 291 385.8 272C428.7 253 471.3 223 514.2 223C557 223 600 253 642.8 258C685.7 263 728.3 243 771.2 239C814 235 857 247 878.5 253L900 259L900 233L878.5 230C857 227 814 221 771.2 226C728.3 231 685.7 247 642.8 242C600 237 557 211 514.2 208C471.3 205 428.7 225 385.8 241C343 257 300 269 257.2 269C214.3 269 171.7 257 128.8 261C86 265 43 285 21.5 295L0 305Z" fill="#262424"></path><path d="M0 403L21.5 393C43 383 86 363 128.8 354C171.7 345 214.3 347 257.2 349C300 351 343 353 385.8 337C428.7 321 471.3 287 514.2 288C557 289 600 325 642.8 332C685.7 339 728.3 317 771.2 317C814 317 857 339 878.5 350L900 361L900 257L878.5 251C857 245 814 233 771.2 237C728.3 241 685.7 261 642.8 256C600 251 557 221 514.2 221C471.3 221 428.7 251 385.8 270C343 289 300 297 257.2 296C214.3 295 171.7 285 128.8 290C86 295 43 315 21.5 325L0 335Z" fill="#1f1d1d"></path><path d="M0 433L21.5 425C43 417 86 401 128.8 394C171.7 387 214.3 389 257.2 393C300 397 343 403 385.8 389C428.7 375 471.3 341 514.2 341C557 341 600 375 642.8 384C685.7 393 728.3 377 771.2 379C814 381 857 401 878.5 411L900 421L900 359L878.5 348C857 337 814 315 771.2 315C728.3 315 685.7 337 642.8 330C600 323 557 287 514.2 286C471.3 285 428.7 319 385.8 335C343 351 300 349 257.2 347C214.3 345 171.7 343 128.8 352C86 361 43 381 21.5 391L0 401Z" fill="#1a1818"></path><path d="M0 499L21.5 489C43 479 86 459 128.8 456C171.7 453 214.3 467 257.2 474C300 481 343 481 385.8 474C428.7 467 471.3 453 514.2 449C557 445 600 451 642.8 460C685.7 469 728.3 481 771.2 488C814 495 857 497 878.5 498L900 499L900 419L878.5 409C857 399 814 379 771.2 377C728.3 375 685.7 391 642.8 382C600 373 557 339 514.2 339C471.3 339 428.7 373 385.8 387C343 401 300 395 257.2 391C214.3 387 171.7 385 128.8 392C86 399 43 415 21.5 423L0 431Z" fill="#191717"></path><path d="M0 529L21.5 521C43 513 86 497 128.8 498C171.7 499 214.3 517 257.2 520C300 523 343 511 385.8 504C428.7 497 471.3 495 514.2 496C557 497 600 501 642.8 502C685.7 503 728.3 501 771.2 507C814 513 857 527 878.5 534L900 541L900 497L878.5 496C857 495 814 493 771.2 486C728.3 479 685.7 467 642.8 458C600 449 557 443 514.2 447C471.3 451 428.7 465 385.8 472C343 479 300 479 257.2 472C214.3 465 171.7 451 128.8 454C86 457 43 477 21.5 487L0 497Z" fill="#181616"></path><path d="M0 535L21.5 535C43 535 86 535 128.8 538C171.7 541 214.3 547 257.2 547C300 547 343 541 385.8 536C428.7 531 471.3 527 514.2 527C557 527 600 531 642.8 536C685.7 541 728.3 547 771.2 550C814 553 857 553 878.5 553L900 553L900 539L878.5 532C857 525 814 511 771.2 505C728.3 499 685.7 501 642.8 500C600 499 557 495 514.2 494C471.3 493 428.7 495 385.8 502C343 509 300 521 257.2 518C214.3 515 171.7 497 128.8 496C86 495 43 511 21.5 519L0 527Z" fill="#171515"></path><path d="M0 601L21.5 601C43 601 86 601 128.8 601C171.7 601 214.3 601 257.2 601C300 601 343 601 385.8 601C428.7 601 471.3 601 514.2 601C557 601 600 601 642.8 601C685.7 601 728.3 601 771.2 601C814 601 857 601 878.5 601L900 601L900 551L878.5 551C857 551 814 551 771.2 548C728.3 545 685.7 539 642.8 534C600 529 557 525 514.2 525C471.3 525 428.7 529 385.8 534C343 539 300 545 257.2 545C214.3 545 171.7 539 128.8 536C86 533 43 533 21.5 533L0 533Z" fill="#161414"></path></svg>