<svg id="visual" viewBox="0 0 900 600" width="900" height="600" xmlns="http://www.w3.org/2000/svg" xmlns:xlink="http://www.w3.org/1999/xlink" version="1.1"><rect x="0" y="0" width="900" height="600" fill="#131416"></rect><path d="M0 221L12.5 226.7C25 232.3 50 243.7 75 235.2C100 226.7 125 198.3 150 199.5C175 200.7 200 231.3 225 236C250 240.7 275 219.3 300 208.7C325 198 350 198 375 205.3C400 212.7 425 227.3 450 236.3C475 245.3 500 248.7 525 237.5C550 226.3 575 200.7 600 194C625 187.3 650 199.7 675 201.7C700 203.7 725 195.3 750 198.8C775 202.3 800 217.7 825 220.7C850 223.7 875 214.3 887.5 209.7L900 205L900 601L887.5 601C875 601 850 601 825 601C800 601 775 601 750 601C725 601 700 601 675 601C650 601 625 601 600 601C575 601 550 601 525 601C500 601 475 601 450 601C425 601 400 601 375 601C350 601 325 601 300 601C275 601 250 601 225 601C200 601 175 601 150 601C125 601 100 601 75 601C50 601 25 601 12.5 601L0 601Z" fill="#65f153"></path><path d="M0 226L12.5 240C25 254 50 282 75 281.8C100 281.7 125 253.3 150 251.2C175 249 200 273 225 287.2C250 301.3 275 305.7 300 305.2C325 304.7 350 299.3 375 299.7C400 300 425 306 450 308.3C475 310.7 500 309.3 525 302.5C550 295.7 575 283.3 600 277.2C625 271 650 271 675 277.3C700 283.7 725 296.3 750 301.8C775 307.3 800 305.7 825 302.5C850 299.3 875 294.7 887.5 292.3L900 290L900 601L887.5 601C875 601 850 601 825 601C800 601 775 601 750 601C725 601 700 601 675 601C650 601 625 601 600 601C575 601 550 601 525 601C500 601 475 601 450 601C425 601 400 601 375 601C350 601 325 601 300 601C275 601 250 601 225 601C200 601 175 601 150 601C125 601 100 601 75 601C50 601 25 601 12.5 601L0 601Z" fill="#59e148"></path><path d="M0 316L12.5 320.7C25 325.3 50 334.7 75 336.8C100 339 125 334 150 335.3C175 336.7 200 344.3 225 342.7C250 341 275 330 300 329.2C325 328.3 350 337.7 375 345.2C400 352.7 425 358.3 450 360.3C475 362.3 500 360.7 525 356.2C550 351.7 575 344.3 600 337C625 329.7 650 322.3 675 313.7C700 305 725 295 750 298.3C775 301.7 800 318.3 825 328.5C850 338.7 875 342.3 887.5 344.2L900 346L900 601L887.5 601C875 601 850 601 825 601C800 601 775 601 750 601C725 601 700 601 675 601C650 601 625 601 600 601C575 601 550 601 525 601C500 601 475 601 450 601C425 601 400 601 375 601C350 601 325 601 300 601C275 601 250 601 225 601C200 601 175 601 150 601C125 601 100 601 75 601C50 601 25 601 12.5 601L0 601Z" fill="#4ed13c"></path><path d="M0 414L12.5 411.7C25 409.3 50 404.7 75 403.5C100 402.3 125 404.7 150 406.2C175 407.7 200 408.3 225 400.2C250 392 275 375 300 367.8C325 360.7 350 363.3 375 369.2C400 375 425 384 450 388C475 392 500 391 525 393.7C550 396.3 575 402.7 600 401.7C625 400.7 650 392.3 675 389.2C700 386 725 388 750 385C775 382 800 374 825 369.2C850 364.3 875 362.7 887.5 361.8L900 361L900 601L887.5 601C875 601 850 601 825 601C800 601 775 601 750 601C725 601 700 601 675 601C650 601 625 601 600 601C575 601 550 601 525 601C500 601 475 601 450 601C425 601 400 601 375 601C350 601 325 601 300 601C275 601 250 601 225 601C200 601 175 601 150 601C125 601 100 601 75 601C50 601 25 601 12.5 601L0 601Z" fill="#42c131"></path><path d="M0 410L12.5 419.5C25 429 50 448 75 446.8C100 445.7 125 424.3 150 413C175 401.7 200 400.3 225 400.7C250 401 275 403 300 402.7C325 402.3 350 399.7 375 401.5C400 403.3 425 409.7 450 413.5C475 417.3 500 418.7 525 421.8C550 425 575 430 600 432C625 434 650 433 675 434.7C700 436.3 725 440.7 750 442.5C775 444.3 800 443.7 825 438.7C850 433.7 875 424.3 887.5 419.7L900 415L900 601L887.5 601C875 601 850 601 825 601C800 601 775 601 750 601C725 601 700 601 675 601C650 601 625 601 600 601C575 601 550 601 525 601C500 601 475 601 450 601C425 601 400 601 375 601C350 601 325 601 300 601C275 601 250 601 225 601C200 601 175 601 150 601C125 601 100 601 75 601C50 601 25 601 12.5 601L0 601Z" fill="#36b226"></path><path d="M0 487L12.5 490.7C25 494.3 50 501.7 75 506C100 510.3 125 511.7 150 510.3C175 509 200 505 225 498C250 491 275 481 300 480.7C325 480.3 350 489.7 375 494C400 498.3 425 497.7 450 498C475 498.3 500 499.7 525 500.3C550 501 575 501 600 502.2C625 503.3 650 505.7 675 499.2C700 492.7 725 477.3 750 474.7C775 472 800 482 825 487.7C850 493.3 875 494.7 887.5 495.3L900 496L900 601L887.5 601C875 601 850 601 825 601C800 601 775 601 750 601C725 601 700 601 675 601C650 601 625 601 600 601C575 601 550 601 525 601C500 601 475 601 450 601C425 601 400 601 375 601C350 601 325 601 300 601C275 601 250 601 225 601C200 601 175 601 150 601C125 601 100 601 75 601C50 601 25 601 12.5 601L0 601Z" fill="#29a319"></path><path d="M0 544L12.5 542.2C25 540.3 50 536.7 75 536.2C100 535.7 125 538.3 150 535.8C175 533.3 200 525.7 225 526.7C250 527.7 275 537.3 300 544.2C325 551 350 555 375 554.8C400 554.7 425 550.3 450 543.8C475 537.3 500 528.7 525 527.3C550 526 575 532 600 536C625 540 650 542 675 546C700 550 725 556 750 559.7C775 563.3 800 564.7 825 556.2C850 547.7 875 529.3 887.5 520.2L900 511L900 601L887.5 601C875 601 850 601 825 601C800 601 775 601 750 601C725 601 700 601 675 601C650 601 625 601 600 601C575 601 550 601 525 601C500 601 475 601 450 601C425 601 400 601 375 601C350 601 325 601 300 601C275 601 250 601 225 601C200 601 175 601 150 601C125 601 100 601 75 601C50 601 25 601 12.5 601L0 601Z" fill="#1a940a"></path></svg>